<?xml version="1.0" standalone="no"?>
<!DOCTYPE svg PUBLIC "-//W3C//DTD SVG 20010904//EN"
 "http://www.w3.org/TR/2001/REC-SVG-20010904/DTD/svg10.dtd">
<svg version="1.0" xmlns="http://www.w3.org/2000/svg"
 width="199.000000pt" height="270.000000pt" viewBox="0 0 199.000000 270.000000"
 preserveAspectRatio="xMidYMid meet">

<g transform="translate(0.000000,270.000000) scale(0.100000,-0.100000)"
fill="#000000" stroke="none">
<path d="M384 2270 c0 -118 2 -167 3 -107 2 59 2 155 0 215 -1 59 -3 10 -3
-108z"/>
<path d="M384 1855 c0 -71 1 -99 3 -62 2 37 2 96 0 130 -2 34 -3 4 -3 -68z"/>
<path d="M1472 1880 c0 -14 2 -19 5 -12 2 6 2 18 0 25 -3 6 -5 1 -5 -13z"/>
<path d="M722 1840 c0 -14 2 -19 5 -12 2 6 2 18 0 25 -3 6 -5 1 -5 -13z"/>
<path d="M1769 1703 c-13 -16 -12 -17 4 -4 16 13 21 21 13 21 -2 0 -10 -8 -17
-17z"/>
<path d="M328 1643 c28 -2 76 -2 105 0 28 2 5 3 -53 3 -58 0 -81 -1 -52 -3z"/>
<path d="M988 1643 c17 -2 47 -2 65 0 17 2 3 4 -33 4 -36 0 -50 -2 -32 -4z"/>
<path d="M1538 1643 c12 -2 32 -2 45 0 12 2 2 4 -23 4 -25 0 -35 -2 -22 -4z"/>
<path d="M1628 1643 c7 -3 16 -2 19 1 4 3 -2 6 -13 5 -11 0 -14 -3 -6 -6z"/>
<path d="M288 1247 c-98 -45 -178 -84 -178 -87 0 -3 84 -42 186 -86 l185 -81
149 48 c323 105 427 103 762 -10 l117 -39 186 81 c102 45 185 84 185 87 0 7
-356 170 -371 170 -6 0 -73 -20 -148 -44 -317 -102 -420 -101 -762 10 -58 19
-112 34 -120 34 -8 -1 -94 -38 -191 -83z"/>
<path d="M295 819 c-93 -44 -173 -84 -178 -88 -4 -4 76 -46 178 -93 l185 -87
103 35 c342 116 459 118 777 15 l152 -49 184 85 c101 47 184 89 184 92 -1 6
-340 164 -365 169 -8 2 -77 -17 -154 -42 -311 -102 -420 -102 -732 0 -75 24
-142 44 -150 43 -8 0 -90 -36 -184 -80z"/>
<path d="M300 389 c-96 -44 -179 -84 -183 -88 -4 -4 32 -26 80 -49 48 -22 132
-61 186 -87 l99 -46 121 41 c334 113 459 112 806 -5 l102 -34 187 86 c103 47
188 87 190 88 1 1 -83 41 -187 89 l-188 88 -144 -46 c-208 -67 -281 -80 -413
-73 -97 4 -133 12 -281 57 -93 29 -177 54 -185 56 -8 3 -94 -32 -190 -77z"/>
</g>
</svg>
